<svg width="22" height="19" viewBox="0 0 22 19" fill="none" xmlns="http://www.w3.org/2000/svg">
<g clip-path="url(#clip0_1_184)">
<path fill-rule="evenodd" clip-rule="evenodd" d="M11.696 0C5.98877 0 1.375 4.28159 1.375 9.57851C1.375 13.8126 4.3312 17.3967 8.43223 18.6652C8.94497 18.7606 9.13278 18.4591 9.13278 18.2055C9.13278 17.9835 9.11588 17.2223 9.11588 16.4292C6.24482 17.0003 5.64695 15.2874 5.64695 15.2874C5.18555 14.1773 4.5019 13.892 4.5019 13.892C3.5622 13.3052 4.57035 13.3052 4.57035 13.3052C5.61272 13.3687 6.15968 14.2885 6.15968 14.2885C7.08226 15.7473 8.56892 15.3351 9.16701 15.0813C9.25236 14.4628 9.52594 14.0347 9.81643 13.7968C7.52655 13.5748 5.11731 12.7502 5.11731 9.07094C5.11731 8.02429 5.52716 7.16797 6.17658 6.50199C6.07412 6.26416 5.71518 5.28076 6.27925 3.96456C6.27925 3.96456 7.15071 3.71078 9.11567 4.94777C9.95694 4.7381 10.8245 4.63144 11.696 4.63054C12.5675 4.63054 13.4559 4.74167 14.2762 4.94777C16.2414 3.71078 17.1128 3.96456 17.1128 3.96456C17.6769 5.28076 17.3177 6.26416 17.2153 6.50199C17.8818 7.16797 18.2748 8.02429 18.2748 9.07094C18.2748 12.7502 15.8655 13.5588 13.5585 13.7968C13.9346 14.0981 14.2591 14.6689 14.2591 15.5729C14.2591 16.8574 14.2422 17.8883 14.2422 18.2053C14.2422 18.4591 14.4302 18.7606 14.9427 18.6654C19.0438 17.3965 22 13.8126 22 9.57851C22.0169 4.28159 17.3862 0 11.696 0Z" fill="black"/>
</g>
<defs>
<clipPath id="clip0_1_184">
<rect width="20.625" height="19" fill="white" transform="translate(1.375)"/>
</clipPath>
</defs>
</svg>
