<svg width="41" height="40" viewBox="0 0 41 40" fill="none" xmlns="http://www.w3.org/2000/svg">
<g filter="url(#filter0_d_301_18)">
<path d="M30.5352 7.45976C30.5352 6.39625 29.6733 5.53752 28.6138 5.53752C27.5542 5.53752 26.6915 6.39625 26.6915 7.45976C26.6915 8.51935 27.5542 9.37808 28.6138 9.37808C29.6733 9.37808 30.5352 8.51935 30.5352 7.45976" fill="url(#paint0_linear_301_18)"/>
<path d="M33.0956 22.4646C33.0244 24.0247 32.7635 24.8724 32.5469 25.4353C32.2558 26.1818 31.9087 26.7155 31.3458 27.2754C30.7891 27.8352 30.2553 28.1816 29.5089 28.4694C28.9459 28.6892 28.095 28.9509 26.535 29.0253C24.8483 29.0996 24.3486 29.1154 20.0715 29.1154C15.7985 29.1154 15.2947 29.0996 13.6081 29.0253C12.048 28.9509 11.2012 28.6892 10.6381 28.4694C9.88774 28.1816 9.35797 27.8352 8.79814 27.2754C8.23433 26.7155 7.88722 26.1818 7.60018 25.4353C7.38349 24.8724 7.11863 24.0247 7.05138 22.4646C6.96918 20.778 6.95412 20.2703 6.95412 16.002C6.95412 11.7249 6.96918 11.2212 7.05138 9.53458C7.11863 7.97451 7.38349 7.12765 7.60018 6.55986C7.88722 5.81423 8.23433 5.28363 8.79814 4.72379C9.35797 4.16479 9.88774 3.81762 10.6381 3.52667C11.2012 3.30606 12.048 3.04826 13.6081 2.97395C15.2947 2.89958 15.7985 2.8806 20.0715 2.8806C24.3486 2.8806 24.8483 2.89958 26.535 2.97395C28.095 3.04826 28.9459 3.30606 29.5089 3.52667C30.2553 3.81762 30.7891 4.16479 31.3458 4.72379C31.9087 5.28363 32.2558 5.81423 32.5469 6.55986C32.7635 7.12765 33.0244 7.97451 33.0956 9.53458C33.1739 11.2212 33.1929 11.7249 33.1929 16.002C33.1929 20.2703 33.1739 20.778 33.0956 22.4646V22.4646ZM35.9763 9.40334C35.898 7.69851 35.6291 6.53377 35.2298 5.5193C34.8234 4.46683 34.2785 3.57489 33.3866 2.68294C32.4986 1.79498 31.6067 1.25014 30.5542 0.838986C29.5358 0.443602 28.3749 0.171571 26.6693 0.0972622C24.9637 0.0150067 24.419 2.60671e-07 20.0715 2.60671e-07C15.7281 2.60671e-07 15.1793 0.0150067 13.4737 0.0972622C11.772 0.171571 10.612 0.443602 9.58885 0.838986C8.54034 1.25014 7.6484 1.79498 6.76043 2.68294C5.86849 3.57489 5.32366 4.46683 4.91327 5.5193C4.51789 6.53377 4.24906 7.69851 4.1668 9.40334C4.09249 11.1089 4.07352 11.6545 4.07352 16.002C4.07352 20.3455 4.09249 20.8902 4.1668 22.5958C4.24906 24.2975 4.51789 25.4614 4.91327 26.4807C5.32366 27.5292 5.86849 28.4251 6.76043 29.3131C7.6484 30.2011 8.54034 30.7499 9.58885 31.1602C10.612 31.5556 11.772 31.8245 13.4737 31.9027C15.1793 31.981 15.7281 32 20.0715 32C24.419 32 24.9637 31.981 26.6693 31.9027C28.3749 31.8245 29.5358 31.5556 30.5542 31.1602C31.6067 30.7499 32.4986 30.2011 33.3866 29.3131C34.2785 28.4251 34.8234 27.5292 35.2298 26.4807C35.6291 25.4614 35.898 24.2975 35.9763 22.5958C36.0545 20.8902 36.0735 20.3455 36.0735 16.002C36.0735 11.6545 36.0545 11.1089 35.9763 9.40334V9.40334Z" fill="url(#paint1_linear_301_18)"/>
<path d="M20.0715 21.3307C17.1276 21.3307 14.7389 18.9458 14.7389 16.0019C14.7389 13.0533 17.1276 10.6653 20.0715 10.6653C23.0162 10.6653 25.4082 13.0533 25.4082 16.0019C25.4082 18.9458 23.0162 21.3307 20.0715 21.3307V21.3307ZM20.0715 7.78075C15.5335 7.78075 11.8583 11.4639 11.8583 16.0019C11.8583 20.536 15.5335 24.2152 20.0715 24.2152C24.6095 24.2152 28.2888 20.536 28.2888 16.0019C28.2888 11.4639 24.6095 7.78075 20.0715 7.78075Z" fill="url(#paint2_linear_301_18)"/>
</g>
<defs>
<filter id="filter0_d_301_18" x="0.0735168" y="0" width="40" height="40" filterUnits="userSpaceOnUse" color-interpolation-filters="sRGB">
<feFlood flood-opacity="0" result="BackgroundImageFix"/>
<feColorMatrix in="SourceAlpha" type="matrix" values="0 0 0 0 0 0 0 0 0 0 0 0 0 0 0 0 0 0 127 0" result="hardAlpha"/>
<feOffset dy="4"/>
<feGaussianBlur stdDeviation="2"/>
<feComposite in2="hardAlpha" operator="out"/>
<feColorMatrix type="matrix" values="0 0 0 0 0 0 0 0 0 0 0 0 0 0 0 0 0 0 0.25 0"/>
<feBlend mode="normal" in2="BackgroundImageFix" result="effect1_dropShadow_301_18"/>
<feBlend mode="normal" in="SourceGraphic" in2="effect1_dropShadow_301_18" result="shape"/>
</filter>
<linearGradient id="paint0_linear_301_18" x1="4.36214" y1="31.6691" x2="33.4082" y2="2.62317" gradientUnits="userSpaceOnUse">
<stop stop-color="#FFD521"/>
<stop offset="0.05" stop-color="#FFD521"/>
<stop offset="0.501119" stop-color="#F50000"/>
<stop offset="0.95" stop-color="#B900B4"/>
<stop offset="0.950079" stop-color="#B900B4"/>
<stop offset="1" stop-color="#B900B4"/>
</linearGradient>
<linearGradient id="paint1_linear_301_18" x1="4.36215" y1="31.709" x2="33.4321" y2="2.63906" gradientUnits="userSpaceOnUse">
<stop stop-color="#FFD521"/>
<stop offset="0.05" stop-color="#FFD521"/>
<stop offset="0.501119" stop-color="#F50000"/>
<stop offset="0.95" stop-color="#B900B4"/>
<stop offset="0.950079" stop-color="#B900B4"/>
<stop offset="1" stop-color="#B900B4"/>
</linearGradient>
<linearGradient id="paint2_linear_301_18" x1="4.36969" y1="31.7097" x2="33.4326" y2="2.64679" gradientUnits="userSpaceOnUse">
<stop stop-color="#FFD521"/>
<stop offset="0.05" stop-color="#FFD521"/>
<stop offset="0.501119" stop-color="#F50000"/>
<stop offset="0.95" stop-color="#B900B4"/>
<stop offset="0.950079" stop-color="#B900B4"/>
<stop offset="1" stop-color="#B900B4"/>
</linearGradient>
</defs>
</svg>
