<svg width="16" height="14" viewBox="0 0 16 14" fill="none" xmlns="http://www.w3.org/2000/svg">
<g clip-path="url(#clip0_1_272)">
<g clip-path="url(#clip1_1_272)">
<path fill-rule="evenodd" clip-rule="evenodd" d="M8.50621 0C4.35547 0 1 3.15486 1 7.05785C1 10.1777 3.14996 12.8186 6.13253 13.7533C6.50543 13.8236 6.64202 13.6015 6.64202 13.4146C6.64202 13.251 6.62973 12.6901 6.62973 12.1058C4.54169 12.5265 4.10687 11.2644 4.10687 11.2644C3.77131 10.4465 3.27411 10.2362 3.27411 10.2362C2.59069 9.80386 3.32389 9.80386 3.32389 9.80386C4.08198 9.85061 4.47977 10.5283 4.47977 10.5283C5.15074 11.6033 6.23194 11.2996 6.66691 11.1126C6.72899 10.6568 6.92796 10.3413 7.13922 10.1661C5.47386 10.0025 3.72168 9.39488 3.72168 6.68385C3.72168 5.91263 4.01975 5.28166 4.49206 4.79094C4.41754 4.6157 4.1565 3.89109 4.56673 2.92126C4.56673 2.92126 5.20052 2.73426 6.62958 3.64573C7.24141 3.49123 7.87238 3.41264 8.50621 3.41198C9.13999 3.41198 9.78607 3.49386 10.3827 3.64573C11.8119 2.73426 12.4457 2.92126 12.4457 2.92126C12.8559 3.89109 12.5947 4.6157 12.5202 4.79094C13.005 5.28166 13.2907 5.91263 13.2907 6.68385C13.2907 9.39488 11.5386 9.99072 9.86075 10.1661C10.1342 10.3881 10.3702 10.8087 10.3702 11.4748C10.3702 12.4212 10.3579 13.1809 10.3579 13.4145C10.3579 13.6015 10.4947 13.8236 10.8674 13.7535C13.85 12.8185 16 10.1777 16 7.05785C16.0123 3.15486 12.6445 0 8.50621 0Z" fill="#ECECEC"/>
</g>
</g>
<defs>
<clipPath id="clip0_1_272">
<rect width="16" height="14" fill="white"/>
</clipPath>
<clipPath id="clip1_1_272">
<rect width="15" height="14" fill="white" transform="translate(1)"/>
</clipPath>
</defs>
</svg>
