<svg width="19" height="14" viewBox="0 0 19 14" fill="none" xmlns="http://www.w3.org/2000/svg">
<g clip-path="url(#clip0_1_296)">
<g clip-path="url(#clip1_1_296)">
<g clip-path="url(#clip2_1_296)">
<path fill-rule="evenodd" clip-rule="evenodd" d="M8.73375 0C4.58301 0 1.22754 3.15486 1.22754 7.05785C1.22754 10.1777 3.3775 12.8186 6.36007 13.7533C6.73297 13.8236 6.86956 13.6015 6.86956 13.4146C6.86956 13.251 6.85727 12.6901 6.85727 12.1058C4.76923 12.5265 4.33441 11.2644 4.33441 11.2644C3.99885 10.4465 3.50165 10.2362 3.50165 10.2362C2.81823 9.80386 3.55143 9.80386 3.55143 9.80386C4.30952 9.85061 4.70731 10.5283 4.70731 10.5283C5.37828 11.6033 6.45948 11.2996 6.89445 11.1126C6.95653 10.6568 7.1555 10.3413 7.36676 10.1661C5.70139 10.0025 3.94922 9.39488 3.94922 6.68385C3.94922 5.91263 4.24729 5.28166 4.7196 4.79094C4.64508 4.6157 4.38404 3.89109 4.79427 2.92126C4.79427 2.92126 5.42806 2.73426 6.85712 3.64573C7.46895 3.49123 8.09992 3.41264 8.73375 3.41198C9.36753 3.41198 10.0136 3.49386 10.6102 3.64573C12.0394 2.73426 12.6732 2.92126 12.6732 2.92126C13.0835 3.89109 12.8223 4.6157 12.7477 4.79094C13.2325 5.28166 13.5183 5.91263 13.5183 6.68385C13.5183 9.39488 11.7661 9.99072 10.0883 10.1661C10.3618 10.3881 10.5978 10.8087 10.5978 11.4748C10.5978 12.4212 10.5855 13.1809 10.5855 13.4145C10.5855 13.6015 10.7222 13.8236 11.095 13.7535C14.0775 12.8185 16.2275 10.1777 16.2275 7.05785C16.2398 3.15486 12.872 0 8.73375 0Z" fill="#ECECEC"/>
</g>
</g>
</g>
<defs>
<clipPath id="clip0_1_296">
<rect width="18.1488" height="14" fill="white" transform="translate(0.227539)"/>
</clipPath>
<clipPath id="clip1_1_296">
<rect width="16" height="14" fill="white" transform="translate(0.227539)"/>
</clipPath>
<clipPath id="clip2_1_296">
<rect width="15" height="14" fill="white" transform="translate(1.22754)"/>
</clipPath>
</defs>
</svg>
