<svg width="32" height="32" viewBox="0 0 32 32" fill="none" xmlns="http://www.w3.org/2000/svg">
<g clip-path="url(#clip0_368_83)">
<path d="M6.74613 20.2293C6.74613 22.0891 5.24415 23.5923 3.38576 23.5923C1.52737 23.5923 0.0253906 22.0891 0.0253906 20.2293C0.0253906 18.3694 1.52737 16.8662 3.38576 16.8662H6.74613V20.2293ZM8.42632 20.2293C8.42632 18.3694 9.92831 16.8662 11.7867 16.8662C13.6451 16.8662 15.1471 18.3694 15.1471 20.2293V28.6369C15.1471 30.4968 13.6451 32 11.7867 32C9.92831 32 8.42632 30.4968 8.42632 28.6369V20.2293Z" fill="#E01E5A"/>
<path d="M11.7868 6.72612C9.92838 6.72612 8.42639 5.22293 8.42639 3.36306C8.42639 1.50318 9.92838 0 11.7868 0C13.6452 0 15.1471 1.50318 15.1471 3.36306V6.72612H11.7868ZM11.7868 8.43312C13.6452 8.43312 15.1471 9.93631 15.1471 11.7962C15.1471 13.6561 13.6452 15.1592 11.7868 15.1592H3.36037C1.50199 15.1592 0 13.6561 0 11.7962C0 9.93631 1.50199 8.43312 3.36037 8.43312H11.7868Z" fill="#36C5F0"/>
<path d="M25.2539 11.7962C25.2539 9.93631 26.7559 8.43312 28.6143 8.43312C30.4726 8.43312 31.9746 9.93631 31.9746 11.7962C31.9746 13.6561 30.4726 15.1592 28.6143 15.1592H25.2539V11.7962ZM23.5737 11.7962C23.5737 13.6561 22.0717 15.1592 20.2133 15.1592C18.3549 15.1592 16.853 13.6561 16.853 11.7962V3.36306C16.853 1.50318 18.3549 0 20.2133 0C22.0717 0 23.5737 1.50318 23.5737 3.36306V11.7962Z" fill="#2EB67D"/>
<path d="M20.2133 25.2739C22.0717 25.2739 23.5737 26.777 23.5737 28.6369C23.5737 30.4968 22.0717 32 20.2133 32C18.3549 32 16.853 30.4968 16.853 28.6369V25.2739H20.2133ZM20.2133 23.5923C18.3549 23.5923 16.853 22.0891 16.853 20.2293C16.853 18.3694 18.3549 16.8662 20.2133 16.8662H28.6397C30.4981 16.8662 32.0001 18.3694 32.0001 20.2293C32.0001 22.0891 30.4981 23.5923 28.6397 23.5923H20.2133Z" fill="#ECB22E"/>
</g>
<defs>
<clipPath id="clip0_368_83">
<rect width="32" height="32" fill="white"/>
</clipPath>
</defs>
</svg>
