<svg width="17" height="18" viewBox="0 0 17 18" fill="none" xmlns="http://www.w3.org/2000/svg">
<path d="M8.5 18C7.38333 18 6.34167 17.7959 5.375 17.3878C4.40833 16.9796 3.5625 16.4204 2.8375 15.7102C2.1125 15 1.54167 14.1714 1.125 13.2245C0.708333 12.2776 0.5 11.2571 0.5 10.1633H1.275C1.275 12.1224 1.97917 13.7918 3.3875 15.1714C4.79583 16.551 6.5 17.2408 8.5 17.2408C10.5 17.2408 12.2042 16.551 13.6125 15.1714C15.0208 13.7918 15.725 12.1224 15.725 10.1633C15.725 8.20408 15.0333 6.53469 13.65 5.1551C12.2667 3.77551 10.575 3.08571 8.575 3.08571H7.975L9.75 4.8L9.2 5.31429L6.5 2.6449L9.225 0L9.775 0.514286L7.925 2.32653H8.5C9.61667 2.32653 10.6583 2.53061 11.625 2.93878C12.5917 3.34694 13.4375 3.90612 14.1625 4.61633C14.8875 5.32653 15.4583 6.1551 15.875 7.10204C16.2917 8.04898 16.5 9.06939 16.5 10.1633C16.5 11.2571 16.2917 12.2776 15.875 13.2245C15.4583 14.1714 14.8875 15 14.1625 15.7102C13.4375 16.4204 12.5917 16.9796 11.625 17.3878C10.6583 17.7959 9.61667 18 8.5 18Z" fill="black"/>
</svg>
