<svg width="556" height="443" viewBox="0 0 556 443" fill="none" xmlns="http://www.w3.org/2000/svg">
<path d="M397.762 22.4676C433.315 45.9744 439.935 93.5911 462.906 129.502C487.732 168.313 526.855 197.39 538.217 242.044C551.945 296 572.523 366.256 533.159 405.614C492.003 446.762 420.306 410.492 362.564 417.666C322.043 422.7 284.899 449.738 244.921 441.424C204.97 433.115 181.198 394.347 146.574 372.746C99.6434 343.467 26.2178 343.307 5.44957 292.023C-14.6623 242.361 25.3446 187.745 53.0936 141.913C77.1111 102.245 113.661 73.9231 152.67 48.8677C188.941 25.5716 227.635 6.89943 270.49 2.28339C314.079 -2.41191 361.186 -1.71536 397.762 22.4676Z" fill="#D2FF3A"/>
</svg>
