<svg width="106" height="84" viewBox="0 0 106 84" fill="none" xmlns="http://www.w3.org/2000/svg">
<path d="M103.243 33.6751C96.5611 27.082 88.9389 21.8867 80.3771 18.0894C71.8152 14.2921 62.6478 12.3934 52.8747 12.3934C50.7029 12.3934 48.552 12.4978 46.422 12.7064C44.292 12.9151 42.5169 13.1863 41.0969 13.5201L37.5887 10.1401C39.3428 9.63934 41.4728 9.24292 43.9787 8.95082C46.4846 8.65872 49.45 8.51267 52.8747 8.51267C63.316 8.51267 73.0473 10.5156 82.0686 14.5216C91.0898 18.5276 99.067 24.0358 106 31.0462L103.243 33.6751ZM82.9456 53.8301C81.8597 52.8286 80.8991 51.994 80.0638 51.3264C79.2285 50.6587 78.1426 49.9911 76.8061 49.3234L69.9149 42.313C71.8361 42.8137 74.1123 43.8987 76.7435 45.5678C79.3747 47.237 82.0268 49.4068 84.6998 52.0775L82.9456 53.8301ZM93.3452 83.1237L52.7494 42.4381C47.1529 42.5216 41.7861 43.69 36.6489 45.9434C31.5118 48.1967 27.1891 51.2012 23.6809 54.9568L21.0496 52.3279C24.5579 48.7392 28.7136 45.6721 33.5165 43.1267C38.3195 40.5812 43.4775 39.0581 48.9905 38.5574L27.565 17.2757C23.5556 18.6945 19.2537 20.927 14.6596 23.9732C10.0654 27.0194 6.01418 30.2533 2.50591 33.6751L0 31.0462C3.67533 27.3741 7.68479 24.0149 12.0284 20.9687C16.3719 17.9225 20.4649 15.6066 24.3073 14.0209L12.279 2.00298L14.2837 0L95.4752 81.1207L93.3452 83.1237ZM52.8747 84L41.974 73.1088C43.394 71.69 45.0229 70.5842 46.8605 69.7913C48.6982 68.9985 50.7029 68.6021 52.8747 68.6021C55.0465 68.6021 57.0512 68.9985 58.8889 69.7913C60.7266 70.5842 62.3554 71.69 63.7754 73.1088L52.8747 84Z" fill="#222222"/>
</svg>
