<?xml version="1.0" encoding="UTF-8"?>
<svg version="1.1" xmlns="http://www.w3.org/2000/svg" width="500" height="500">
<path d="M0 0 C1.05051544 -0.00635468 2.10103088 -0.01270935 3.18338013 -0.01925659 C43.57774234 -0.17110768 80.92452246 8.78938375 116.6875 27.4375 C117.50653809 27.86224609 118.32557617 28.28699219 119.16943359 28.72460938 C128.39868009 33.54349641 137.17808798 38.26205767 145.03515625 45.17578125 C148.75571578 48.34839387 152.73273704 51.11006656 156.74365234 53.90063477 C161.93704939 57.5360127 166.91357012 61.23171267 170.9375 66.1875 C173.61107584 69.33807946 176.43826217 72.04651865 179.5625 74.75 C187.99909856 82.21658117 194.35601624 91.16004114 200.546875 100.4921875 C202.57020876 103.46632733 202.57020876 103.46632733 205.08984375 105.70703125 C208.67677223 109.47735156 210.98063158 113.72009911 213.5 118.25 C214.02480957 119.18271729 214.54961914 120.11543457 215.09033203 121.07641602 C219.55483286 129.07160775 223.79147622 137.15061263 227.6875 145.4375 C228.21859375 146.55769531 228.7496875 147.67789063 229.296875 148.83203125 C235.55035232 162.6767143 239.40527699 177.21086513 242.4375 192.0625 C242.63609619 193.02583252 242.83469238 193.98916504 243.03930664 194.98168945 C246.33488623 211.93381212 247.09594023 228.70936278 247.0625 245.9375 C247.06168427 247.52389282 247.06168427 247.52389282 247.06085205 249.14233398 C247.02278902 265.2603519 246.2925115 280.6696344 242.6875 296.4375 C242.46255859 297.46649414 242.23761719 298.49548828 242.00585938 299.55566406 C237.09618244 321.73036194 228.8600683 341.18223318 218.6875 361.4375 C218.30223145 362.21158203 217.91696289 362.98566406 217.52001953 363.78320312 C211.614324 375.48997115 203.79204237 385.67793993 195.66992188 395.93261719 C194.33687145 397.61698878 193.01539286 399.31057711 191.70507812 401.01269531 C187.30333478 406.66930268 182.61395142 411.62268158 177.3125 416.4375 C175.80853337 417.82274097 174.30592194 419.20945478 172.8046875 420.59765625 C172.09151367 421.25652832 171.37833984 421.91540039 170.64355469 422.59423828 C168.15080293 424.94324923 165.79855916 427.39395259 163.4375 429.875 C158.58894215 434.78098578 153.10003901 438.55250702 147.36083984 442.32421875 C144.59867579 444.16190012 141.89955627 446.08945614 139.1875 448 C103.71918403 472.4375 103.71918403 472.4375 89.6875 472.4375 C89.6875 473.0975 89.6875 473.7575 89.6875 474.4375 C29.40523999 496.4888029 -42.17684901 496.64673156 -100.9296875 469.5078125 C-130.75799785 455.49654696 -130.75799785 455.49654696 -141.9296875 446.32421875 C-144.27118736 444.47021148 -146.69453249 442.7823451 -149.15991211 441.09838867 C-158.00609121 435.01018602 -165.63933347 427.92265632 -173.3125 420.4375 C-173.95928711 419.81649414 -174.60607422 419.19548828 -175.27246094 418.55566406 C-183.80271703 410.36374237 -191.34791929 401.98513144 -198.3125 392.4375 C-199.04597656 391.51066406 -199.77945313 390.58382813 -200.53515625 389.62890625 C-224.3125 359.39351852 -224.3125 359.39351852 -224.3125 346.4375 C-224.9725 346.4375 -225.6325 346.4375 -226.3125 346.4375 C-233.78165164 328.78831173 -239.27358922 311.21646715 -243.125 292.4375 C-243.43570435 290.93473511 -243.43570435 290.93473511 -243.75268555 289.40161133 C-249.73232184 258.80794751 -248.8681124 222.83749368 -242.3125 192.4375 C-242.11994629 191.49535645 -241.92739258 190.55321289 -241.72900391 189.58251953 C-235.11895774 157.59254674 -220.72025008 119.84525008 -197.3125 96.4375 C-195.9684907 94.44465862 -194.63708708 92.44330329 -193.3125 90.4375 C-192.12032744 88.80060689 -190.91100486 87.17610785 -189.6875 85.5625 C-189.09710938 84.78132813 -188.50671875 84.00015625 -187.8984375 83.1953125 C-187.37507813 82.61523438 -186.85171875 82.03515625 -186.3125 81.4375 C-185.6525 81.4375 -184.9925 81.4375 -184.3125 81.4375 C-184.05597656 80.85645508 -183.79945313 80.27541016 -183.53515625 79.67675781 C-182.19752619 77.22692896 -180.71799351 75.58432607 -178.75 73.609375 C-178.04045166 72.89571777 -177.33090332 72.18206055 -176.59985352 71.44677734 C-175.84502686 70.70121582 -175.0902002 69.9556543 -174.3125 69.1875 C-173.54156006 68.42260254 -172.77062012 67.65770508 -171.97631836 66.86962891 C-164.51709802 59.53970485 -156.68027575 53.25925099 -148.04858398 47.37011719 C-146.26125398 46.10764692 -144.50535969 44.79911261 -142.7890625 43.44165039 C-135.13332536 37.38657105 -127.13227467 32.83901689 -118.44238281 28.45263672 C-116.20356625 27.32062358 -113.97652506 26.1676858 -111.75 25.01171875 C-93.00272542 15.37812846 -73.89594342 8.97229441 -53.3125 4.4375 C-52.27561035 4.20869141 -51.2387207 3.97988281 -50.17041016 3.74414062 C-33.54340262 0.29179918 -16.91363223 0.05233903 0 0 Z " fill="#6843EB" transform="translate(249.3125,3.5625)"/>
<path d="M0 0 C1.05051544 -0.00635468 2.10103088 -0.01270935 3.18338013 -0.01925659 C43.57774234 -0.17110768 80.92452246 8.78938375 116.6875 27.4375 C117.50653809 27.86224609 118.32557617 28.28699219 119.16943359 28.72460938 C128.39868009 33.54349641 137.17808798 38.26205767 145.03515625 45.17578125 C148.75571578 48.34839387 152.73273704 51.11006656 156.74365234 53.90063477 C161.93704939 57.5360127 166.91357012 61.23171267 170.9375 66.1875 C173.61107584 69.33807946 176.43826217 72.04651865 179.5625 74.75 C187.99909856 82.21658117 194.35601624 91.16004114 200.546875 100.4921875 C202.57020876 103.46632733 202.57020876 103.46632733 205.08984375 105.70703125 C208.67677223 109.47735156 210.98063158 113.72009911 213.5 118.25 C214.02480957 119.18271729 214.54961914 120.11543457 215.09033203 121.07641602 C219.55483286 129.07160775 223.79147622 137.15061263 227.6875 145.4375 C228.21859375 146.55769531 228.7496875 147.67789063 229.296875 148.83203125 C235.55035232 162.6767143 239.40527699 177.21086513 242.4375 192.0625 C242.63609619 193.02583252 242.83469238 193.98916504 243.03930664 194.98168945 C246.33488623 211.93381212 247.09594023 228.70936278 247.0625 245.9375 C247.06168427 247.52389282 247.06168427 247.52389282 247.06085205 249.14233398 C247.02278902 265.2603519 246.2925115 280.6696344 242.6875 296.4375 C242.46255859 297.46649414 242.23761719 298.49548828 242.00585938 299.55566406 C237.09618244 321.73036194 228.8600683 341.18223318 218.6875 361.4375 C218.30223145 362.21158203 217.91696289 362.98566406 217.52001953 363.78320312 C211.614324 375.48997115 203.79204237 385.67793993 195.66992188 395.93261719 C194.33687145 397.61698878 193.01539286 399.31057711 191.70507812 401.01269531 C187.30333478 406.66930268 182.61395142 411.62268158 177.3125 416.4375 C175.80853337 417.82274097 174.30592194 419.20945478 172.8046875 420.59765625 C172.09151367 421.25652832 171.37833984 421.91540039 170.64355469 422.59423828 C168.15080293 424.94324923 165.79855916 427.39395259 163.4375 429.875 C158.58894215 434.78098578 153.10003901 438.55250702 147.36083984 442.32421875 C144.59867579 444.16190012 141.89955627 446.08945614 139.1875 448 C103.71918403 472.4375 103.71918403 472.4375 89.6875 472.4375 C89.6875 473.0975 89.6875 473.7575 89.6875 474.4375 C29.40523999 496.4888029 -42.17684901 496.64673156 -100.9296875 469.5078125 C-130.75799785 455.49654696 -130.75799785 455.49654696 -141.9296875 446.32421875 C-144.27118736 444.47021148 -146.69453249 442.7823451 -149.15991211 441.09838867 C-158.00609121 435.01018602 -165.63933347 427.92265632 -173.3125 420.4375 C-173.95928711 419.81649414 -174.60607422 419.19548828 -175.27246094 418.55566406 C-183.80271703 410.36374237 -191.34791929 401.98513144 -198.3125 392.4375 C-199.04597656 391.51066406 -199.77945313 390.58382813 -200.53515625 389.62890625 C-224.3125 359.39351852 -224.3125 359.39351852 -224.3125 346.4375 C-224.9725 346.4375 -225.6325 346.4375 -226.3125 346.4375 C-233.78165164 328.78831173 -239.27358922 311.21646715 -243.125 292.4375 C-243.43570435 290.93473511 -243.43570435 290.93473511 -243.75268555 289.40161133 C-249.73232184 258.80794751 -248.8681124 222.83749368 -242.3125 192.4375 C-242.11994629 191.49535645 -241.92739258 190.55321289 -241.72900391 189.58251953 C-235.11895774 157.59254674 -220.72025008 119.84525008 -197.3125 96.4375 C-195.9684907 94.44465862 -194.63708708 92.44330329 -193.3125 90.4375 C-192.12032744 88.80060689 -190.91100486 87.17610785 -189.6875 85.5625 C-189.09710938 84.78132813 -188.50671875 84.00015625 -187.8984375 83.1953125 C-187.37507813 82.61523438 -186.85171875 82.03515625 -186.3125 81.4375 C-185.6525 81.4375 -184.9925 81.4375 -184.3125 81.4375 C-184.05597656 80.85645508 -183.79945313 80.27541016 -183.53515625 79.67675781 C-182.19752619 77.22692896 -180.71799351 75.58432607 -178.75 73.609375 C-178.04045166 72.89571777 -177.33090332 72.18206055 -176.59985352 71.44677734 C-175.84502686 70.70121582 -175.0902002 69.9556543 -174.3125 69.1875 C-173.54156006 68.42260254 -172.77062012 67.65770508 -171.97631836 66.86962891 C-164.51709802 59.53970485 -156.68027575 53.25925099 -148.04858398 47.37011719 C-146.26125398 46.10764692 -144.50535969 44.79911261 -142.7890625 43.44165039 C-135.13332536 37.38657105 -127.13227467 32.83901689 -118.44238281 28.45263672 C-116.20356625 27.32062358 -113.97652506 26.1676858 -111.75 25.01171875 C-93.00272542 15.37812846 -73.89594342 8.97229441 -53.3125 4.4375 C-52.27561035 4.20869141 -51.2387207 3.97988281 -50.17041016 3.74414062 C-33.54340262 0.29179918 -16.91363223 0.05233903 0 0 Z M-109.3125 40.4375 C-110.31555176 40.97310547 -110.31555176 40.97310547 -111.33886719 41.51953125 C-157.27952534 66.17805426 -192.64196633 105.36314782 -214.125 152.6875 C-214.47377197 153.45408936 -214.82254395 154.22067871 -215.18188477 155.01049805 C-220.32274122 166.63282486 -224.08194678 178.51814137 -227 190.875 C-227.29455078 192.06931641 -227.58910156 193.26363281 -227.89257812 194.49414062 C-231.80538621 210.82242064 -232.72035707 226.47652875 -232.6875 243.1875 C-232.68695618 244.2263031 -232.68641235 245.2651062 -232.68585205 246.33538818 C-232.5511725 302.32867975 -212.70405944 358.00321484 -173.68359375 398.94921875 C-171.67642041 401.05559341 -169.79831128 403.20361653 -167.9375 405.4375 C-137.95626402 439.73207417 -92.73228417 462.09046363 -48.8125 471.5625 C-47.71010986 471.80081543 -47.71010986 471.80081543 -46.58544922 472.04394531 C-44.16663263 472.5444628 -41.7431813 472.99814673 -39.3125 473.4375 C-38.34094971 473.61990234 -37.36939941 473.80230469 -36.3684082 473.99023438 C-26.37422971 475.65927184 -16.50200122 475.7428089 -6.39135742 475.69824219 C-3.51524588 475.68755664 -0.63976413 475.69817559 2.23632812 475.7109375 C13.53516873 475.71955072 24.50915547 475.08180438 35.6875 473.4375 C37.00826538 473.24897461 37.00826538 473.24897461 38.35571289 473.05664062 C78.73915281 466.95148455 117.38811912 449.62272107 148.6875 423.4375 C149.28433594 422.94217773 149.88117188 422.44685547 150.49609375 421.93652344 C160.71633226 413.42866104 170.11492744 404.66110899 178.44140625 394.2421875 C179.90436491 392.41539738 181.39046955 390.60683051 182.90234375 388.8203125 C197.81334625 371.15771903 208.96699173 350.77355528 217.6875 329.4375 C217.99816406 328.67856445 218.30882812 327.91962891 218.62890625 327.13769531 C239.62289814 275.02603971 239.21370746 213.7935428 218.53515625 161.68359375 C202.60158397 124.4256671 179.87177985 90.56891409 147.6875 65.4375 C146.72714844 64.66019531 145.76679688 63.88289063 144.77734375 63.08203125 C115.58801786 39.87079739 81.13205829 24.72783416 44.6875 17.4375 C43.41036133 17.17235596 43.41036133 17.17235596 42.10742188 16.90185547 C-8.35955396 6.51782287 -64.19106482 16.08697308 -109.3125 40.4375 Z " fill="#0E0D10" transform="translate(249.3125,3.5625)"/>
<path d="M0 0 C2.74568379 2.31873029 5.31961767 4.78304393 7.87890625 7.3046875 C8.57644516 7.98749786 9.27398407 8.67030823 9.99266052 9.37380981 C11.44941532 10.80680578 12.90210653 12.24394372 14.35083008 13.68505859 C16.5696492 15.88207897 18.8161433 18.04806362 21.06445312 20.21484375 C22.48356595 21.61797843 23.90094719 23.02286705 25.31640625 24.4296875 C25.9881337 25.06953583 26.65986115 25.70938416 27.35194397 26.36862183 C30.48044896 29.54356642 32.40889221 31.71360292 32.54663086 36.28955078 C32 40 32 40 29.9375 42.9375 C26.2755773 45.50863721 24.49651023 46.30484815 20 46 C11.92566369 40.60544775 5.22554313 32.23325388 -1.5065918 25.24658203 C-11.62480421 14.28758189 -11.62480421 14.28758189 -25.24609375 9.37109375 C-26.64336758 9.36093533 -28.04123214 9.3835239 -29.4375 9.4375 C-30.17613281 9.45409668 -30.91476563 9.47069336 -31.67578125 9.48779297 C-49.01947132 10.22185704 -60.37814149 22.91215108 -71.88671875 34.453125 C-73.31643559 35.87827289 -74.74652126 37.30305087 -76.17695618 38.72747803 C-79.16313651 41.70475786 -82.14362052 44.68759987 -85.12036133 47.67431641 C-88.91782325 51.48326853 -92.73091297 55.27612864 -96.5486784 59.06471634 C-99.50273765 62.00034863 -102.44734329 64.9453246 -105.3893528 67.89302826 C-106.79077108 69.29459893 -108.19525734 70.69310948 -109.60297203 72.08835602 C-120.15761438 82.49673512 -120.15761438 82.49673512 -128 95 C-128.32010544 95.65204407 -128.64021088 96.30408813 -128.97001648 96.97589111 C-132.19589368 104.00828355 -133.37069506 111.85653955 -131.35458374 119.42189026 C-128.87525493 125.96080359 -125.59453896 130.25459957 -120.6015625 135.08984375 C-119.88898285 135.80104874 -119.1764032 136.51225372 -118.44223022 137.24501038 C-116.94481954 138.73342001 -115.44018623 140.21459573 -113.92871094 141.6887207 C-111.62235369 143.94008321 -109.3411414 146.21476386 -107.0625 148.49414062 C-105.59776475 149.94413465 -104.13166473 151.39275159 -102.6640625 152.83984375 C-101.64658432 153.85231422 -101.64658432 153.85231422 -100.60855103 154.88523865 C-94.49716084 160.81593127 -89.50541456 163.56051294 -80.8125 163.4375 C-80.06291016 163.42992676 -79.31332031 163.42235352 -78.54101562 163.41455078 C-62.44395144 162.94049709 -51.91806633 153.38855871 -41.12890625 142.38671875 C-40.11596793 141.36562516 -39.10227686 140.34527783 -38.08787537 139.32563782 C-35.44357496 136.66436968 -32.80801454 133.99462556 -30.17474365 131.32244873 C-25.93863574 127.0266841 -21.68932483 122.74398431 -17.4396801 118.46161842 C-15.96007339 116.96806188 -14.48434473 115.47075725 -13.00917053 113.9728241 C-12.11741623 113.07131119 -11.22566193 112.16979828 -10.30688477 111.2409668 C-9.52128677 110.44409958 -8.73568878 109.64723236 -7.92628479 108.82621765 C-5.3149798 106.35056541 -4.33913746 106.0319941 -0.6875 105.6875 C3.57536111 106.04875942 5.01992054 107.01992054 8 110 C9.43304064 112.86608129 9.30644155 114.81300783 9 118 C5.69139429 123.94653316 0.84524128 128.46073835 -3.9375 133.23828125 C-4.81341797 134.11848434 -5.68933594 134.99868744 -6.59179688 135.90556335 C-8.9177739 138.23873415 -11.24881147 140.56671443 -13.58123779 142.89343262 C-15.91759089 145.23028827 -18.24039067 147.58059558 -20.56640625 149.92773438 C-52.04760775 181.52410822 -52.04760775 181.52410822 -73 183 C-74.00619385 183.07154297 -74.00619385 183.07154297 -75.03271484 183.14453125 C-89.57420892 184.03645203 -99.52475499 181.16493927 -111 172 C-113.60364731 169.69111938 -116.09354099 167.27980753 -118.5703125 164.8359375 C-119.25503632 164.16261383 -119.93976013 163.48929016 -120.64523315 162.79556274 C-122.08150917 161.37804899 -123.5150002 159.95770828 -124.94580078 158.53466797 C-127.11264105 156.38724818 -129.29990753 154.26216013 -131.48828125 152.13671875 C-139.02544049 144.71448223 -145.35334352 138.11876865 -149 128 C-149.36706055 126.99775391 -149.73412109 125.99550781 -150.11230469 124.96289062 C-153.45657976 113.80059076 -151.94610225 99.37286021 -147 89 C-146.59910156 88.10667969 -146.19820313 87.21335937 -145.78515625 86.29296875 C-143.18133636 81.01740322 -139.93051961 76.47008989 -136.12109375 72.00708008 C-135.64308319 71.44548345 -135.16507263 70.88388681 -134.6725769 70.3052721 C-128.9601768 63.68102578 -122.81113959 57.5022281 -116.625 51.32421875 C-115.36648586 50.06180222 -114.10818971 48.79916834 -112.85009766 47.53633118 C-110.23481136 44.91365512 -107.61578024 42.2947914 -104.99414062 39.6784668 C-101.66084077 36.35098012 -98.3391007 33.01221005 -95.02029419 29.67027569 C-92.43281492 27.06796763 -89.83833814 24.4727225 -87.24188232 21.87937355 C-86.01492936 20.6519129 -84.79028633 19.4221381 -83.56817627 18.18985558 C-60.72374869 -4.82150802 -29.96156776 -21.84864068 0 0 Z " fill="#D0FC3C" transform="translate(259,206)"/>
<path d="M0 0 C4.93093339 3.64371485 9.39217618 7.57397371 13.76472473 11.86660767 C14.44707687 12.53518799 15.12942902 13.20376831 15.8324585 13.89260864 C17.26461362 15.30164516 18.69390692 16.71359591 20.12043762 18.12832642 C22.27465604 20.25566252 24.45171577 22.35766746 26.62995911 24.46035767 C37.16579358 34.80061559 46.20501038 45.39445458 46.52204895 60.84365845 C46.66254687 80.52364702 40.62170376 95.21519525 27.22956848 109.77285767 C25.28064486 111.58363919 23.2804302 113.29315538 21.23347473 114.99160767 C19.01053597 116.96755323 17.11714423 119.09003681 15.16706848 121.33535767 C11.40393337 125.60667684 7.41433285 129.48841594 3.22956848 133.33535767 C-2.55428063 138.65945545 -8.20695419 144.0935308 -13.77043152 149.64785767 C-14.81070496 150.68148437 -14.81070496 150.68148437 -15.87199402 151.73599243 C-19.18013166 155.05331047 -22.37190118 158.41861405 -25.43058777 161.96817017 C-37.17782884 175.54873809 -53.67210659 185.38950329 -71.75480652 187.04629517 C-84.37391021 187.47129089 -97.5230573 183.95480883 -106.91911316 175.20767212 C-108.26924486 173.86339988 -109.60607588 172.50566136 -110.93058777 171.13613892 C-111.6465361 170.41548752 -112.36248444 169.69483612 -113.10012817 168.9523468 C-115.35644453 166.67488727 -117.59444623 164.38033012 -119.83293152 162.08535767 C-121.36763062 160.53413029 -122.90342883 158.98398951 -124.44035339 157.43496704 C-127.22869649 154.61280542 -130.01661838 151.7903471 -132.78630066 148.94985962 C-133.34015945 148.38314041 -133.89401825 147.8164212 -134.46466064 147.23252869 C-136.56249506 144.88744031 -136.77924282 143.67945791 -137.08293152 140.46035767 C-136.71387221 136.10545777 -136.04964849 134.63166221 -132.77043152 131.77285767 C-128.917316 130.63119381 -126.72204745 130.40250931 -122.95939636 131.86685181 C-119.05151054 134.20254807 -116.24731269 136.99213199 -113.12199402 140.26895142 C-111.85647282 141.56267275 -110.59084448 142.8562893 -109.32511902 144.14981079 C-107.35830714 146.17866798 -105.39499931 148.21080629 -103.43449402 150.24575806 C-101.52654295 152.22051615 -99.60617027 154.1825605 -97.68449402 156.14395142 C-97.11026703 156.74823471 -96.53604004 157.35251801 -95.94441223 157.97511292 C-91.13877223 162.8663444 -86.164338 166.29072554 -79.27824402 167.26895142 C-58.53157981 166.90959811 -46.95235048 156.58233879 -32.94230652 142.47598267 C-31.54048321 141.0768606 -30.13806716 139.67833219 -28.73509216 138.28036499 C-25.8106456 135.36178368 -22.89347331 132.43617429 -19.98136902 129.50527954 C-16.27095767 125.77208122 -12.5428719 122.0571345 -8.80910873 118.34730911 C-5.91399542 115.46673424 -3.02857999 112.57659555 -0.14589691 109.68358612 C1.22413914 108.31090499 2.59708818 106.94112417 3.9731369 105.57447052 C15.61969587 93.99004895 27.05952175 81.89453991 27.54206848 64.52285767 C27.34828538 50.08601659 15.71326787 41.06973412 6.204422 31.56240845 C4.66106383 30.01684444 3.1259177 28.46341563 1.59089661 26.90957642 C0.59464171 25.9103898 -0.40208674 24.91167508 -1.39933777 23.91348267 C-2.73073792 22.57591919 -2.73073792 22.57591919 -4.08903503 21.21133423 C-11.04217035 14.88811512 -17.37026931 12.24858422 -26.70793152 12.46426392 C-42.69120446 14.07482331 -52.92436248 23.45460632 -63.73918152 34.48379517 C-64.75068882 35.50346127 -65.76295131 36.52237872 -66.77592468 37.54058838 C-69.41200523 40.19360815 -72.03933738 42.85510985 -74.66435242 45.51907349 C-78.89050705 49.8049731 -83.12995236 54.07772215 -87.36968994 58.35017776 C-88.84487059 59.83930171 -90.31617076 61.33217542 -91.78691101 62.82568359 C-92.67543762 63.72396881 -93.56396423 64.62225403 -94.47941589 65.54776001 C-95.26199768 66.34161102 -96.04457947 67.13546204 -96.85087585 67.95336914 C-99.44292757 70.41029625 -100.46670673 70.73847373 -104.08293152 71.14785767 C-107.77043152 70.77285767 -107.77043152 70.77285767 -110.64543152 68.71035767 C-113.21358103 65.16026863 -113.84724827 63.15141259 -113.77043152 58.77285767 C-110.47856578 52.72186504 -105.45044291 48.14696489 -100.61418152 43.31582642 C-99.7160675 42.41342728 -98.81795349 41.51102814 -97.8926239 40.58128357 C-95.99208723 38.67501384 -94.08954963 36.77101694 -92.18351746 34.87026978 C-89.7727085 32.46521382 -87.37337115 30.0490761 -84.97711945 27.62952709 C-82.65486178 25.28874277 -80.32135931 22.95922065 -77.98918152 20.62832642 C-77.14496643 19.77490158 -76.30075134 18.92147675 -75.43095398 18.04219055 C-67.67563669 10.34528084 -59.12565626 2.74657624 -49.02043152 -1.66464233 C-48.01496277 -2.11710327 -47.00949402 -2.56956421 -45.97355652 -3.03573608 C-31.47446978 -8.42868908 -13.15616228 -9.11895406 0 0 Z " fill="#D0FC3C" transform="translate(343.7704315185547,113.22714233398438)"/>
<path d="M0 0 C9.7525749 3.2508583 17.27897945 24.55236642 21.66552734 33.30517578 C32.54263855 55.27033376 38.61445005 76.91128878 43 101 C43.20882812 102.11890625 43.41765625 103.2378125 43.6328125 104.390625 C44.01254914 107.08917896 44.09930035 109.6517744 44.0625 112.375 C44.05347656 113.24898438 44.04445313 114.12296875 44.03515625 115.0234375 C44.02355469 115.67570312 44.01195312 116.32796875 44 117 C43.67 117 43.34 117 43 117 C42.85304688 115.77410156 42.70609375 114.54820312 42.5546875 113.28515625 C37.70784199 75.14487465 25.19356355 36.51636852 2.24609375 5.2265625 C0 2 0 2 0 0 Z " fill="#F5F4F8" transform="translate(451,107)"/>
<path d="M0 0 C7.41128402 -0.30973135 14.14350737 0.54033204 21.375 2.125 C22.93613525 2.46059937 22.93613525 2.46059937 24.52880859 2.80297852 C45.70322871 7.48457346 64.81262102 14.97872504 84 25 C84.83499023 25.43538086 85.66998047 25.87076172 86.53027344 26.31933594 C89.19498933 27.71897477 91.84878762 29.13746722 94.5 30.5625 C95.3245166 30.99715576 96.1490332 31.43181152 96.99853516 31.87963867 C102.65216854 34.95984271 107.32670058 38.57728612 112 43 C107.64754352 43 104.97927947 40.49655679 101.5 38.125 C71.29030024 18.16916949 36.02661394 4.9845103 0 1 C0 0.67 0 0.34 0 0 Z " fill="#ECEAF1" transform="translate(282,6)"/>
<path d="M0 0 C0 0.33 0 0.66 0 1 C-0.90987671 1.20979492 -0.90987671 1.20979492 -1.83813477 1.42382812 C-36.50085137 9.51168697 -69.56972778 22.11458878 -98 44 C-98.66 43.67 -99.32 43.34 -100 43 C-93.50167118 36.54203347 -86.00359269 32.28652285 -78 28 C-77.14889648 27.53899902 -76.29779297 27.07799805 -75.42089844 26.60302734 C-23.90101737 -1.2256932 -23.90101737 -1.2256932 0 0 Z " fill="#F4F3F7" transform="translate(202,8)"/>
<path d="M0 0 C6.5433657 2.24515484 11.61217188 6.80131105 17 11 C17.92425781 11.70382813 17.92425781 11.70382813 18.8671875 12.421875 C22.38885476 15.20113673 25.1376141 18.43914878 28.0234375 21.83984375 C30.17315178 24.18923504 32.46743704 26.22917539 34.875 28.3125 C43.61786353 36.03536279 50.27709915 45.52931951 57 55 C56.505 55.99 56.505 55.99 56 57 C55.18917969 55.98421875 54.37835938 54.9684375 53.54296875 53.921875 C46.64545201 45.32620138 39.6266515 36.96392886 32 29 C31.50032715 28.4730957 31.0006543 27.94619141 30.48583984 27.40332031 C23.98745577 20.5831539 17.29294233 14.35545545 9.7565918 8.68920898 C6.19254197 6.00636014 3.0746267 3.21229656 0 0 Z " fill="#EDEBF2" transform="translate(394,50)"/>
<path d="M0 0 C0.66 0.33 1.32 0.66 2 1 C1.154375 1.71285156 0.30875 2.42570312 -0.5625 3.16015625 C-1.7083649 4.12756678 -2.85419642 5.09501684 -4 6.0625 C-4.55300781 6.52849609 -5.10601562 6.99449219 -5.67578125 7.47460938 C-13.12891275 13.77122047 -20.39410159 20.17674681 -27.3125 27.0625 C-28.04799072 27.79404297 -28.78348145 28.52558594 -29.54125977 29.27929688 C-35.19224984 34.99023949 -40.20754076 40.99620119 -44.99609375 47.4375 C-47 50 -47 50 -49 51 C-47.46653414 46.37346379 -44.95900925 42.97925899 -42 39.1875 C-41.32324219 38.2912793 -41.32324219 38.2912793 -40.6328125 37.37695312 C-39.47362397 35.87652419 -38.24186081 34.43275496 -37 33 C-36.34 33 -35.68 33 -35 33 C-34.74347656 32.41895508 -34.48695312 31.83791016 -34.22265625 31.23925781 C-32.88502619 28.78942896 -31.40549351 27.14682607 -29.4375 25.171875 C-28.72762939 24.45797607 -28.01775879 23.74407715 -27.28637695 23.00854492 C-26.53187256 22.2632251 -25.77736816 21.51790527 -25 20.75 C-24.23196045 19.98727783 -23.4639209 19.22455566 -22.67260742 18.4387207 C-15.63061364 11.51395746 -8.36761346 5.2848085 0 0 Z " fill="#E0DEE8" transform="translate(100,52)"/>
<path d="M0 0 C1 3 1 3 0.24658203 5.06201172 C-0.16221191 5.84334473 -0.57100586 6.62467773 -0.9921875 7.4296875 C-1.44537354 8.30109375 -1.89855957 9.1725 -2.36547852 10.0703125 C-2.86362061 10.99585938 -3.3617627 11.92140625 -3.875 12.875 C-4.38023193 13.82375 -4.88546387 14.7725 -5.40600586 15.75 C-9.45722281 23.23898031 -13.864767 30.19759934 -19 37 C-19.40605469 37.54060059 -19.81210937 38.08120117 -20.23046875 38.63818359 C-23.10909614 42.46122219 -26.04379089 46.23668372 -29 50 C-29.72574219 50.93328125 -30.45148438 51.8665625 -31.19921875 52.828125 C-34.89243927 57.52730844 -38.66580236 61.88251224 -43 66 C-43.66 65.67 -44.32 65.34 -45 65 C-44.35675781 64.33097656 -43.71351563 63.66195312 -43.05078125 62.97265625 C-25.32126175 44.13029958 -11.65052282 23.02305052 0 0 Z " fill="#ECEBF1" transform="translate(472,352)"/>
<path d="M0 0 C8.18722637 2.72907546 14.11428257 18.69005784 18 26 C18.48082031 26.89557617 18.96164062 27.79115234 19.45703125 28.71386719 C21.76616059 33.14080752 23.60009929 36.93459106 24 42 C21.74209565 39.14732457 20.02357341 36.28695144 18.3984375 33.03515625 C17.91213867 32.07569092 17.42583984 31.11622559 16.92480469 30.12768555 C16.41336914 29.11617432 15.90193359 28.10466309 15.375 27.0625 C11.25727056 19.01152043 6.94850927 11.4805346 1.546875 4.23046875 C0 2 0 2 0 0 Z " fill="#EDEBF2" transform="translate(451,107)"/>
<path d="M0 0 C2.11891941 2.69444723 3.79167781 5.35279311 5.3125 8.421875 C5.74328857 9.27539551 6.17407715 10.12891602 6.61791992 11.00830078 C7.07400635 11.91306152 7.53009277 12.81782227 8 13.75 C12.02578958 21.62942593 16.40940087 28.97879402 21.64648438 36.11230469 C25 40.72031994 25 40.72031994 25 44 C19.6645814 38.37503192 15.67719585 32.52404419 11.9375 25.75 C11.4209082 24.82848145 10.90431641 23.90696289 10.37207031 22.95751953 C0 4.34341606 0 4.34341606 0 0 Z " fill="#E7E5EE" transform="translate(25,350)"/>
<path d="M0 0 C0 4.02640854 -1.97824587 6.17548528 -4.25 9.3125 C-5.04737394 10.43323894 -5.84425174 11.55433103 -6.640625 12.67578125 C-7.03185547 13.22314941 -7.42308594 13.77051758 -7.82617188 14.33447266 C-9.60311376 16.85574918 -11.30167367 19.4252438 -13 22 C-13.33 21.01 -13.66 20.02 -14 19 C-12.7421875 16.546875 -12.7421875 16.546875 -10.875 13.75 C-10.22917969 12.77804688 -9.58335938 11.80609375 -8.91796875 10.8046875 C-8.28503906 9.87914063 -7.65210938 8.95359375 -7 8 C-6.50113281 7.26007813 -6.00226562 6.52015625 -5.48828125 5.7578125 C-2.30744849 1.15372425 -2.30744849 1.15372425 0 0 Z " fill="#EFEEF3" transform="translate(50,103)"/>
<path d="M0 0 C0 4.11714884 -2.17971182 5.97372669 -4.75 8.9375 C-5.41515625 9.72543945 -5.41515625 9.72543945 -6.09375 10.52929688 C-8.60897578 13.48468716 -11.2142194 16.29883424 -14 19 C-12.47157831 14.37999808 -9.96722985 11.02262081 -7 7.25 C-6.32324219 6.36634766 -6.32324219 6.36634766 -5.6328125 5.46484375 C-2.2675047 1.13375235 -2.2675047 1.13375235 0 0 Z " fill="#EDECF2" transform="translate(65,84)"/>
<path d="M0 0 C0.66 0.33 1.32 0.66 2 1 C-0.05872549 2.77538699 -2.12172999 4.54534184 -4.1875 6.3125 C-5.0547168 7.06176758 -5.0547168 7.06176758 -5.93945312 7.82617188 C-9.14664635 10.56225197 -12.29049989 12.95313836 -16 15 C-14.45252468 10.98938348 -11.88309946 9.01207633 -8.5625 6.375 C-7.59441406 5.59898438 -6.62632813 4.82296875 -5.62890625 4.0234375 C-3.80125361 2.61671526 -1.91898681 1.27932454 0 0 Z " fill="#EFEEF3" transform="translate(100,52)"/>
<path d="M0 0 C0.66 0.33 1.32 0.66 2 1 C-7.22551253 10.59453303 -7.22551253 10.59453303 -13 14 C-13.66 13.67 -14.32 13.34 -15 13 C-14.08476562 12.22914063 -13.16953125 11.45828125 -12.2265625 10.6640625 C-11.02600156 9.6510892 -9.82548292 8.63806576 -8.625 7.625 C-7.72007812 6.86316406 -7.72007812 6.86316406 -6.796875 6.0859375 C-6.21679688 5.59609375 -5.63671875 5.10625 -5.0390625 4.6015625 C-4.50490723 4.15119629 -3.97075195 3.70083008 -3.42041016 3.23681641 C-2.23658322 2.20600388 -1.10995961 1.10995961 0 0 Z " fill="#E5E3EC" transform="translate(415,428)"/>
<path d="M0 0 C3.29696105 1.09898702 4.04670589 1.94597387 6.1875 4.5625 C6.71730469 5.20316406 7.24710937 5.84382813 7.79296875 6.50390625 C8.19128906 6.99761719 8.58960938 7.49132812 9 8 C8.67 8.66 8.34 9.32 8 10 C6.66070495 8.71451591 5.32871357 7.42141845 4 6.125 C2.88625 5.04605469 2.88625 5.04605469 1.75 3.9453125 C0 2 0 2 0 0 Z " fill="#DDDAE7" transform="translate(419,70)"/>
</svg>
